<?xml version="1.0" encoding="UTF-8" standalone="no"?>
<!-- Created with Inkscape (http://www.inkscape.org/) -->

<svg
   xmlns:dc="http://purl.org/dc/elements/1.1/"
   xmlns:cc="http://creativecommons.org/ns#"
   xmlns:rdf="http://www.w3.org/1999/02/22-rdf-syntax-ns#"
   xmlns:svg="http://www.w3.org/2000/svg"
   xmlns="http://www.w3.org/2000/svg"
   xmlns:xlink="http://www.w3.org/1999/xlink"
   xmlns:sodipodi="http://sodipodi.sourceforge.net/DTD/sodipodi-0.dtd"
   xmlns:inkscape="http://www.inkscape.org/namespaces/inkscape"
   width="256"
   height="256"
   id="svg2"
   version="1.1"
   inkscape:version="0.48.2 r9819"
   sodipodi:docname="asmaa-icon1-02.svg"
   inkscape:export-filename="/media/CHAMFAY/fayssal/asmaa-icon1-02.png"
   inkscape:export-xdpi="90"
   inkscape:export-ydpi="90">
  <defs
     id="defs4">
    <linearGradient
       inkscape:collect="always"
       id="linearGradient3865">
      <stop
         style="stop-color:#ffffff;stop-opacity:1;"
         offset="0"
         id="stop3867" />
      <stop
         style="stop-color:#ffffff;stop-opacity:0;"
         offset="1"
         id="stop3869" />
    </linearGradient>
    <linearGradient
       inkscape:collect="always"
       id="linearGradient3843">
      <stop
         style="stop-color:#000000;stop-opacity:1"
         offset="0"
         id="stop3845" />
      <stop
         style="stop-color:#333333;stop-opacity:1"
         offset="1"
         id="stop3847" />
    </linearGradient>
    <linearGradient
       id="linearGradient3041">
      <stop
         style="stop-color:#fd3301;stop-opacity:1;"
         offset="0"
         id="stop3043" />
      <stop
         style="stop-color:#230700;stop-opacity:1;"
         offset="1"
         id="stop3045" />
    </linearGradient>
    <linearGradient
       inkscape:collect="always"
       id="linearGradient3072">
      <stop
         style="stop-color:#d40000;stop-opacity:1"
         offset="0"
         id="stop3074" />
      <stop
         style="stop-color:#ffff00;stop-opacity:1"
         offset="1"
         id="stop3076" />
    </linearGradient>
    <linearGradient
       id="linearGradient4280">
      <stop
         style="stop-color:#808080;stop-opacity:1;"
         offset="0"
         id="stop4282" />
      <stop
         id="stop4326"
         offset="0.0092097"
         style="stop-color:#7c7c7c;stop-opacity:1;" />
      <stop
         id="stop4324"
         offset="0.0530037"
         style="stop-color:#999999;stop-opacity:1;" />
      <stop
         id="stop4322"
         offset="0.0530037"
         style="stop-color:#a1a1a1;stop-opacity:1;" />
      <stop
         id="stop4320"
         offset="0.12872218"
         style="stop-color:#545454;stop-opacity:1;" />
      <stop
         id="stop4318"
         offset="0.15886968"
         style="stop-color:#979797;stop-opacity:1;" />
      <stop
         id="stop4316"
         offset="0.19692096"
         style="stop-color:#9f9f9f;stop-opacity:1;" />
      <stop
         id="stop4314"
         offset="0.24282527"
         style="stop-color:#5e5e5e;stop-opacity:1;" />
      <stop
         id="stop4312"
         offset="0.26894632"
         style="stop-color:#6a6a6a;stop-opacity:1;" />
      <stop
         id="stop4310"
         offset="0.32637796"
         style="stop-color:#818181;stop-opacity:1;" />
      <stop
         id="stop4308"
         offset="0.36552992"
         style="stop-color:#828282;stop-opacity:1;" />
      <stop
         id="stop4306"
         offset="0.41633186"
         style="stop-color:#848484;stop-opacity:1;" />
      <stop
         id="stop4304"
         offset="0.46232268"
         style="stop-color:#888888;stop-opacity:1;" />
      <stop
         id="stop4302"
         offset="0.51904488"
         style="stop-color:#909090;stop-opacity:1;" />
      <stop
         id="stop4300"
         offset="0.54418051"
         style="stop-color:#a1a1a1;stop-opacity:1;" />
      <stop
         id="stop4298"
         offset="0.59994859"
         style="stop-color:#626262;stop-opacity:1;" />
      <stop
         id="stop4296"
         offset="0.67342609"
         style="stop-color:#999999;stop-opacity:1;" />
      <stop
         id="stop4294"
         offset="0.73998773"
         style="stop-color:#999999;stop-opacity:1;" />
      <stop
         id="stop4292"
         offset="0.81268919"
         style="stop-color:#686868;stop-opacity:1;" />
      <stop
         id="stop4290"
         offset="0.8922776"
         style="stop-color:#959595;stop-opacity:1;" />
      <stop
         id="stop4288"
         offset="0.94595087"
         style="stop-color:#606060;stop-opacity:1;" />
      <stop
         style="stop-color:#666666;stop-opacity:1;"
         offset="1"
         id="stop4284" />
    </linearGradient>
    <linearGradient
       inkscape:collect="always"
       id="linearGradient3968">
      <stop
         style="stop-color:#c17d11;stop-opacity:1;"
         offset="0"
         id="stop3970" />
      <stop
         style="stop-color:#ffff99;stop-opacity:1"
         offset="1"
         id="stop3972" />
    </linearGradient>
    <linearGradient
       inkscape:collect="always"
       id="linearGradient3080">
      <stop
         style="stop-color:#eeeeee;stop-opacity:1;"
         offset="0"
         id="stop3082" />
      <stop
         style="stop-color:#eeeeee;stop-opacity:0;"
         offset="1"
         id="stop3084" />
    </linearGradient>
    <linearGradient
       id="linearGradient3057">
      <stop
         style="stop-color:#015a01;stop-opacity:1;"
         offset="0"
         id="stop3059" />
      <stop
         style="stop-color:#02ab02;stop-opacity:1;"
         offset="1"
         id="stop3061" />
    </linearGradient>
    <linearGradient
       inkscape:collect="always"
       xlink:href="#linearGradient3080"
       id="linearGradient3086"
       x1="124.43345"
       y1="852.22766"
       x2="125.62231"
       y2="916.04016"
       gradientUnits="userSpaceOnUse"
       gradientTransform="translate(0.90907234,0)" />
    <linearGradient
       inkscape:collect="always"
       xlink:href="#linearGradient3968"
       id="linearGradient3974"
       x1="127.99999"
       y1="946.15784"
       x2="123.64088"
       y2="900.58514"
       gradientUnits="userSpaceOnUse"
       gradientTransform="translate(-0.3275785,0)" />
    <linearGradient
       inkscape:collect="always"
       xlink:href="#linearGradient3968"
       id="linearGradient4097"
       gradientUnits="userSpaceOnUse"
       gradientTransform="translate(-0.3275785,0)"
       x1="127.99999"
       y1="946.15784"
       x2="123.64088"
       y2="900.58514" />
    <filter
       id="filter4375"
       inkscape:label="Blur content"
       inkscape:menu="Blurs"
       inkscape:menu-tooltip="Blur the contents of objects, preserving the outline"
       color-interpolation-filters="sRGB">
      <feColorMatrix
         id="feColorMatrix4377"
         values="1 0 0 0 0 0 1 0 0 0 0 0 1 0 0 0 0 0 1 0 "
         result="result7" />
      <feGaussianBlur
         id="feGaussianBlur4379"
         result="result6"
         stdDeviation="5" />
      <feComposite
         in2="result7"
         id="feComposite4381"
         operator="atop"
         in="result6"
         result="result91" />
      <feComposite
         in2="result91"
         id="feComposite4383"
         operator="in" />
    </filter>
    <linearGradient
       inkscape:collect="always"
       xlink:href="#linearGradient3072"
       id="linearGradient3078"
       x1="74.501549"
       y1="958.04639"
       x2="72.916405"
       y2="893.05566"
       gradientUnits="userSpaceOnUse"
       gradientTransform="matrix(0.9676259,0,0,0.9676259,4.1438844,29.976061)" />
    <linearGradient
       inkscape:collect="always"
       xlink:href="#linearGradient3041"
       id="linearGradient3047"
       x1="124.9762"
       y1="998.00037"
       x2="124.9762"
       y2="1033.868"
       gradientUnits="userSpaceOnUse"
       gradientTransform="matrix(0.9676259,0,0,0.9676259,4.1438844,29.976061)" />
    <linearGradient
       inkscape:collect="always"
       xlink:href="#linearGradient3843"
       id="linearGradient3849"
       x1="23.538118"
       y1="1027.1428"
       x2="24.098549"
       y2="859.01337"
       gradientUnits="userSpaceOnUse"
       gradientTransform="matrix(0.9676259,0,0,0.9676259,4.1438844,29.976061)" />
    <linearGradient
       inkscape:collect="always"
       xlink:href="#linearGradient3080"
       id="linearGradient3861"
       gradientUnits="userSpaceOnUse"
       gradientTransform="matrix(0.9676259,0,0,0.9676259,-233.72024,29.976061)"
       x1="114.86628"
       y1="802.18396"
       x2="115.98714"
       y2="920.7146" />
    <linearGradient
       inkscape:collect="always"
       xlink:href="#linearGradient3865"
       id="linearGradient3875"
       gradientUnits="userSpaceOnUse"
       x1="125.53663"
       y1="800.16803"
       x2="122.17404"
       y2="911.69391" />
    <linearGradient
       inkscape:collect="always"
       xlink:href="#linearGradient3865"
       id="linearGradient3879"
       gradientUnits="userSpaceOnUse"
       x1="125.53663"
       y1="800.16803"
       x2="122.17404"
       y2="911.69391" />
    <linearGradient
       inkscape:collect="always"
       xlink:href="#linearGradient3865"
       id="linearGradient3883"
       gradientUnits="userSpaceOnUse"
       x1="125.53663"
       y1="800.16803"
       x2="122.17404"
       y2="911.69391" />
    <linearGradient
       inkscape:collect="always"
       xlink:href="#linearGradient3865"
       id="linearGradient3887"
       gradientUnits="userSpaceOnUse"
       x1="125.53663"
       y1="800.16803"
       x2="122.17404"
       y2="911.69391" />
    <linearGradient
       inkscape:collect="always"
       xlink:href="#linearGradient3865"
       id="linearGradient3897"
       gradientUnits="userSpaceOnUse"
       x1="121.05318"
       y1="775.50903"
       x2="121.05318"
       y2="931.87042" />
    <linearGradient
       inkscape:collect="always"
       xlink:href="#linearGradient3865"
       id="linearGradient3907"
       gradientUnits="userSpaceOnUse"
       x1="121.05318"
       y1="775.50903"
       x2="121.05318"
       y2="931.87042"
       gradientTransform="translate(0,-796.36218)" />
    <linearGradient
       inkscape:collect="always"
       xlink:href="#linearGradient3865"
       id="linearGradient3910"
       gradientUnits="userSpaceOnUse"
       gradientTransform="translate(0,-796.36218)"
       x1="122.73446"
       y1="820.34351"
       x2="121.05318"
       y2="917.85962" />
  </defs>
  <sodipodi:namedview
     id="base"
     pagecolor="#ffffff"
     bordercolor="#666666"
     borderopacity="1.0"
     inkscape:pageopacity="0.0"
     inkscape:pageshadow="2"
     inkscape:zoom="1.7843398"
     inkscape:cx="122.18733"
     inkscape:cy="123.51655"
     inkscape:document-units="px"
     inkscape:current-layer="layer1"
     showgrid="false"
     inkscape:window-width="1440"
     inkscape:window-height="846"
     inkscape:window-x="-1"
     inkscape:window-y="26"
     inkscape:window-maximized="1"
     showguides="true"
     inkscape:guide-bbox="true" />
  <metadata
     id="metadata7">
    <rdf:RDF>
      <cc:Work
         rdf:about="">
        <dc:format>image/svg+xml</dc:format>
        <dc:type
           rdf:resource="http://purl.org/dc/dcmitype/StillImage" />
        <dc:title />
      </cc:Work>
    </rdf:RDF>
  </metadata>
  <g
     inkscape:label="Layer 1"
     inkscape:groupmode="layer"
     id="layer1"
     transform="translate(0,-796.36218)">
    <rect
       style="fill:url(#linearGradient3849);fill-opacity:1;stroke:#000000;stroke-width:5.80575562;stroke-opacity:1"
       id="rect3037"
       width="236.97548"
       height="236.97548"
       x="9.5122623"
       y="805.92511"
       ry="19.130617" />
    <path
       style="opacity:0.3375;fill:#eeeeec;fill-opacity:1;fill-rule:nonzero;stroke:none;filter:url(#filter4375)"
       d="m 124.34375,812.59375 c -12.95085,-0.75362 -27.265822,12.00332 -22.90625,25.5 3.2975,4.21695 -0.40899,10.01277 3.65625,13.9375 2.29473,3.17196 -6.003377,4.83559 -8.008242,7.33894 -19.418331,12.81565 -41.279837,25.30292 -52.179258,46.59856 -9.409392,20.17243 -5.462707,45.88907 10.3125,61.75 5.437582,6.50885 13.886262,11.40806 19.875,16.1875 -4.014483,-3.30735 -10.926685,-4.19634 -15.625,-1.59375 -6.787733,-4.10627 -16.91544,-0.27484 -18,8 0.652065,4.32465 -4.721585,5.90787 -4.78125,10.3437 0.469596,7.7908 -0.47873,15.712 0,23.5626 0.153553,6.3678 4.320567,12.3294 10.9375,12.7812 7.728712,1.0019 15.840542,-1.7782 23.09375,1.7812 6.735202,0.7534 13.736712,0.6137 20.4375,0 2.781175,-1.0614 4.936437,-2.2639 7.8125,-0.7812 3.57698,0.5652 6.6586,-2.3896 9.84375,0.1562 9.66619,2.5399 19.78865,-0.369 29.65616,0.8573 20.79033,-0.061 41.55586,-0.512 62.31259,0.2365 7.29538,0.1499 15.13719,-4.6047 15.25,-12.5312 0.20679,-6.2439 -0.50859,-12.5287 -0.0312,-18.7188 -1.28406,-6.4078 1.63842,-13.03203 -0.71875,-19.46875 -2.71832,-8.67592 -13.24876,-9.25825 -20.84375,-8.125 -3.8251,0.14446 -7.62767,-0.54328 -11.46875,-0.3125 19.07411,-12.37258 33.27271,-34.82038 29.53125,-58.25 -2.54392,-19.90708 -17.16325,-35.30415 -32.85793,-46.44979 -11.10537,-8.73627 -24.27056,-15.77997 -34.92332,-24.51896 2.9019,-5.40864 0.70588,-12.72115 -3.71875,-16.34375 5.09948,0.88019 12.70508,-2.38346 10.5625,-8.59375 -3.51149,-6.52822 -11.11299,-9.8249 -17.78125,-12.21875 -3.06896,-0.81332 -6.25238,-1.26171 -9.4375,-1.125 z m 1.8125,67.53125 c 4.08889,10.71789 15.91469,14.90036 23.35587,22.71525 6.18326,5.58126 13.01206,11.91407 16.11288,19.40975 -5.06272,2.28954 -5.36138,8.42624 -9.21875,11.625 -2.40754,2.73902 -1.76244,6.71171 -4.84375,8.875 -1.32252,1.74698 -4.09033,-2.208 -6.09375,-2.21875 -16.43438,-7.15388 -37.06012,-4.2377 -50.375,7.78125 -9.522546,-6.63236 -14.613494,-22.0053 -5.6875,-31.15625 10.568925,-13.8888 26.61377,-22.85498 36.75,-37.03125 z"
       id="path4408"
       inkscape:connector-curvature="0"
       transform="matrix(0.9676259,0,0,0.9676259,4.1438844,29.976061)" />
    <path
       style="opacity:0.3375;fill:#eeeeec;fill-opacity:1;fill-rule:nonzero;stroke:none;filter:url(#filter4375)"
       d="m 121.8125,810.59375 c -13.47953,0.723 -26.946902,14.42932 -22.1875,28.375 2.831,4.10319 -0.0538,10.62436 3.625,14.28125 -14.53228,8.78773 -28.99457,18.05221 -41.875,29.03125 -13.695788,11.63781 -24.077108,28.3047 -23.5,46.875 -0.405324,19.9109 10.654072,38.62691 26.90625,49.65625 -3.274338,0.46261 -6.051504,1.64148 -9.15625,0.0312 -8.102672,-1.61021 -16.599284,5.03105 -16.40625,13.375 -3.331006,3.47829 -5.611467,7.8524 -4.40625,12.8438 0.786549,10.1317 -3.499071,23.2274 5.21875,30.9063 8.691321,6.9831 20.957556,-0.085 30.5,4.8124 8.70002,0.8296 17.767556,0.9968 26.09375,-1.4374 4.18885,2.3273 8.79649,-2.0411 12.6875,1 11.22433,2.0823 22.79117,-0.4335 34.15621,0.6361 20.13095,-0.3051 40.30126,-0.01 60.40629,0.083 8.58661,-0.8812 15.70865,-8.8785 14.17417,-17.7187 -0.37049,-10.574 -0.2234,-20.9702 0.0446,-31.5001 -0.33838,-8.98617 -9.26398,-14.41589 -17.5625,-13.875 -3.43854,-0.18104 -9.07637,1.19789 -11.125,-0.0312 18.56348,-14.17129 30.35339,-38.77591 24,-62.0625 -6.25671,-24.88773 -28.91275,-40.30371 -49.12709,-53.66086 -5.48401,-3.93414 -12.66343,-7.57826 -16.96666,-12.33914 1.80703,-4.44594 0.0221,-9.84426 -1.75,-13.5 6.19722,-0.49459 11.25939,-8.16012 6.53125,-13.34375 -6.96101,-8.78687 -19.21655,-13.14427 -30.28125,-12.4375 z m 3.96875,73.375 c 6.50148,10.6584 19.04674,15.27039 27.03125,24.65625 3.58052,3.78781 8.90585,8.39055 9.84375,13.125 -3.89671,3.36207 -5.16224,8.78165 -8.8125,12.3125 -1.5318,1.9963 -1.63452,9.17874 -5.21875,5.6875 -16.87158,-8.43665 -39.03923,-6.27932 -53.59375,6 -8.55421,-6.63152 -11.702627,-20.85338 -3.0625,-28.65625 9.94527,-12.26547 23.94414,-20.81627 33.8125,-33.125 z"
       id="path4412"
       inkscape:connector-curvature="0"
       transform="matrix(0.9676259,0,0,0.9676259,4.1438844,29.976061)" />
    <path
       style="opacity:0.3375;fill:#eeeeec;fill-opacity:1;fill-rule:nonzero;stroke:none;filter:url(#filter4375)"
       d="m 123.26836,814.58823 c -11.25806,0.14692 -23.422031,10.64481 -20.09287,22.53378 1.53563,2.69538 2.56425,5.68319 1.5479,8.84086 0.18152,3.15728 2.39217,5.75584 4.79252,7.56088 -20.924231,14.51014 -45.044785,26.49478 -59.86187,47.83591 -11.451963,18.55765 -10.333875,44.38122 3.750669,61.0228 6.531378,8.87894 16.389607,15.62381 25.272366,20.83705 -1.805021,0.97763 -2.62955,2.85518 -3.125557,4.79252 -1.855742,-3.49512 -6.019863,-5.50795 -9.94225,-5.1795 -2.308682,-0.14416 -4.296316,0.6722 -5.834375,2.02417 -2.075419,-1.51247 -4.735195,-2.28755 -7.292968,-2.0837 -6.094093,-0.29235 -10.177793,6.2709 -9.019466,11.57944 -3.574788,2.15671 -5.891637,6.19996 -4.584151,10.62696 0.559753,8.8469 -2.43981,19.1297 2.381377,26.9989 8.148444,7.0858 19.623438,-0.1437 28.665829,4.5841 5.674231,1.4285 11.614325,0.095 17.443589,0.6549 2.905622,0.1267 5.813048,-1.0348 8.156217,-2.5898 2.923826,2.1386 7.09088,1.712 9.97201,-0.2381 8.01358,5.3362 18.42726,1.3567 27.41561,2.5004 12.21773,0.428 24.63803,-0.2056 36.73274,-0.119 5.26449,0.6393 10.49697,-0.4178 15.68733,0.06 8.51479,-0.238 19.03896,2.6897 26.04631,-3.4232 5.27808,-6.7439 1.10101,-15.7078 2.73858,-23.3673 0.14351,-3.0825 -1.6005,-5.753 -0.0298,-8.5134 -0.0769,-6.00606 1.4002,-13.53002 -4.58415,-17.41388 -5.88147,-3.91612 -13.47936,-0.77 -20.06311,-1.93487 -4.37541,-0.12275 -9.51431,-0.0448 -13.45478,-0.1786 19.3825,-10.58618 35.85175,-30.62437 34.97648,-53.72982 -0.10522,-18.98083 -11.80081,-35.72029 -26.70119,-46.55593 -13.10199,-11.23046 -29.26866,-20.11847 -42.41829,-30.15419 5.75568,-6.64667 -0.6702,-19.89835 -9.85294,-16.69941 -2.07667,0.81296 -6.80709,-0.84804 -2.41115,-1.9944 6.22769,-2.55341 14.44162,2.30577 19.73566,-2.61952 2.60786,-5.30709 -4.39783,-8.46613 -7.82877,-10.92456 -5.08646,-3.21894 -11.11099,-4.9391 -17.14592,-4.73299 -0.36076,-0.0171 -0.70846,-0.005 -1.07162,0 z m 2.94696,58.37351 c 0.11401,0.0482 0.20984,0.39216 0.29767,1.16092 1.15752,7.31314 5.67884,13.56801 12.11525,17.14592 11.22951,9.12585 23.81494,18.53615 29.94582,31.79138 -4.26566,1.46578 -7.15484,5.69104 -8.00738,9.79342 -3.26026,1.75171 -4.74782,5.68821 -4.85205,8.87063 -2.08101,0.62278 -3.22249,3.85539 -4.40555,4.31624 -16.76442,-11.46225 -41.5089,-9.29905 -56.051665,4.82229 -10.60292,-6.80531 -17.311319,-22.76314 -8.483657,-33.51788 10.547548,-14.79318 27.328212,-23.78063 37.804362,-38.48901 0.44614,-0.729 1.14316,-6.10287 1.6372,-5.89391 z m 1.60742,95.28486 c 1.68926,-0.1352 2.97788,2.18273 0.41675,1.96463 -1.18422,0.47017 -5.60757,0.40865 -5.0902,-1.19069 1.44616,-0.6935 3.10164,-0.7136 4.67345,-0.77394 z m -28.278846,32.2677 c 1.542266,-0.083 0.134697,5.1896 -0.32744,2.1135 0.130101,-0.6852 0.08789,-1.5918 0.32744,-2.1135 z"
       id="path3106"
       inkscape:connector-curvature="0"
       transform="matrix(0.9676259,0,0,0.9676259,4.1438844,29.976061)" />
    <path
       style="opacity:0.3375;fill:#eeeeec;fill-opacity:1;fill-rule:nonzero;stroke:none;filter:url(#filter4375)"
       d="m 122.5,816.59375 c -10.52522,0.0557 -21.97555,11.85543 -16.1875,22.28125 0.70898,4.99572 0.15544,11.8919 5.90625,14.1875 -0.002,3.20426 -5.00431,3.20737 -6.59375,5.59375 -21.282382,14.29105 -46.499412,26.89473 -58,51.09375 -9.62011,22.50646 -0.233472,50.47174 19.90625,63.71875 4.446055,3.66156 10.717863,6.79016 14.75,9.84375 -4.168154,1.4184 -5.907132,6.5942 -6,9.875 -1.432384,-6.98622 -10.563957,-10.87979 -16.375,-6.53125 -4.649534,-2.50157 -11.982051,-3.35549 -14.0625,2.8125 -1.296038,2.75893 0.796563,5.95449 -2.53125,7.28125 -5.432362,5.1837 -0.848253,12.8881 -2.75,19.1875 -0.864163,6.5113 0.03574,16.781 8.5,17.0625 7.564955,1.1969 15.794198,-1.862 22.84375,1.9062 8.198817,0.856 16.725559,0.5683 24.40625,-1.9062 3.04176,1.7476 6.32906,0.9364 9.09375,-0.4375 4.53206,0.9554 8.70548,4.0686 13.65625,2.5 28.12214,-0.4723 56.25112,-0.069 84.37376,-0.133 7.17115,-0.2272 10.3875,-8.7722 8.43874,-14.867 -0.37986,-9.3473 0.0927,-18.7442 0.34375,-28.03125 -1.16816,-6.98256 -9.17576,-9.18947 -15.28125,-7.8125 -9.06098,-0.11607 -18.83575,0.706 -27.5,-1.03125 21.76484,-9.64844 41.25737,-31.63947 39.53125,-56.9375 -1.28881,-23.21882 -19.9381,-40.38215 -38.17174,-52.33153 -10.4477,-7.41023 -21.4257,-14.03644 -31.60951,-21.82472 5.52393,-4.68078 2.22758,-16.69684 -5.59375,-15.46875 -2.69272,2.11897 -10.03326,-0.86281 -6.78125,-4.46875 5.69675,-4.48719 13.51784,0.10199 19.96875,-2.4375 2.53182,-5.55673 -5.23175,-7.36212 -8.5,-9.90625 -4.8145,-2.53935 -10.34677,-3.58825 -15.78125,-3.21875 z M 125.6875,871 c 4.94966,1.41153 2.68977,8.76182 6.25,11.90625 12.46033,11.9123 28.5772,20.64879 36.96875,36.375 1.34604,2.40567 3.56369,5.10951 -0.25,5.75 -4.02625,2.03074 -5.46904,6.72862 -7.78125,9.9375 -3.65062,2.73837 -2.46454,8.68578 -6.5,10.90625 -1.38185,2.70212 -4.90853,2.65082 -6.625,0.28125 -16.41448,-9.48393 -39.34452,-6.3887 -52.40625,7.34375 -12.559583,-7.18158 -19.801377,-25.78411 -9.96875,-37.78125 10.680622,-15.25252 29.15657,-23.59494 38.03125,-40.1875 0.14425,-1.65538 0.52792,-4.05632 2.28125,-4.53125 z m 2.96875,95.1875 c 3.70681,-0.006 3.61801,7.31654 -0.65625,6.15625 -2.96367,1.68119 -9.3519,-2.245 -5.90625,-5.0625 1.98739,-1.01502 4.36528,-0.9278 6.5625,-1.09375 z m -29.1875,32.09375 c 4.96395,0.0633 2.18522,10.21055 -1.5,6.31255 -1.210186,-1.8774 -1.218944,-6.34177 1.5,-6.31255 z"
       id="path4416"
       inkscape:connector-curvature="0"
       transform="matrix(0.9676259,0,0,0.9676259,4.1438844,29.976061)" />
    <path
       style="fill:url(#linearGradient3078);fill-opacity:1;fill-rule:nonzero;stroke:#888888;stroke-width:1.84342587"
       d="m 125.81224,824.78874 c -8.27713,0 -14.97784,4.59899 -14.97784,10.28286 0,3.95818 3.23605,7.40903 8.00738,9.13071 l -5.44386,0 c -0.005,0 0,0.0143 0,0.0288 l 0,4.63737 c 0,0.0145 -0.005,0.0288 0,0.0288 l 22.26513,0 c 0.005,0 0,-0.0141 0,-0.0288 l 0,-4.63737 c 0,-0.0145 0.007,-0.0288 0,-0.0288 l -8.38183,0 c -4.40591,-1.45145 -7.46012,-4.54283 -7.46012,-8.12259 0,-4.97336 5.86314,-9.0155 13.10561,-9.0155 0.88875,0 1.78193,0.0571 2.62112,0.17281 -2.61617,-1.53077 -6.02908,-2.44829 -9.73559,-2.44829 z m 3.80206,29.92687 5.7031,24.79983 c 19.40248,16.17289 20.48432,16.18387 26.26882,22.49556 5.77395,6.30024 11.41107,12.53387 13.59527,19.84563 l 22.95641,21.57384 c 1.82736,-4.82415 2.82275,-9.91806 2.82275,-15.17945 0,-15.36584 -7.66332,-27.88366 -21.83308,-39.34563 -11.68378,-9.451 -40.27839,-28.39228 -49.51327,-34.18978 z m -6.33678,0.37444 c -9.81232,6.30953 -38.556243,25.31322 -49.513257,33.81534 -13.297018,10.31785 -21.833075,23.97979 -21.833075,39.34563 0,24.69075 21.550037,45.60711 51.356692,52.88328 5.46463,5.01983 13.79135,8.2378 23.12923,8.2378 9.32399,0 17.63538,-3.20208 23.10043,-8.209 20.82833,-5.06338 37.6311,-16.77645 45.88402,-31.7991 l -3.51403,-3.3124 0.17283,0 -19.15435,-18.00221 c -0.0548,-0.0514 -0.12778,-0.0673 -0.14402,-0.0576 l -5.47267,3.25479 c -0.0161,0.01 0.003,0.0638 0.0576,0.11522 l 7.02806,6.596 c -0.32309,0.8912 -0.65772,1.78669 -1.06573,2.64993 l -5.18464,-4.86779 c -0.0547,-0.0514 -0.099,-0.0673 -0.11521,-0.0576 l -5.50148,3.25481 c -0.0162,0.01 0.0318,0.0638 0.0864,0.11521 l 7.46012,6.99925 c -0.5352,0.72965 -1.13061,1.43266 -1.72821,2.13146 l -4.46455,-4.20531 c -0.0548,-0.0514 -0.099,-0.0672 -0.11522,-0.0576 l -5.50147,3.25479 c -0.0162,0.01 0.003,0.0639 0.0576,0.11522 l 5.64549,5.27104 c -2.8351,2.43491 -6.03274,4.60817 -9.62038,6.42319 -4.33023,-8.29949 -15.26533,-14.14253 -27.91062,-14.14253 -12.62808,0 -23.42529,5.88946 -27.766595,14.17133 -13.205055,-6.66745 -21.890682,-17.96188 -21.890682,-30.76217 0,-10.24386 5.952762,-17.59435 14.574585,-26.24001 6.905082,-6.92417 8.682682,-7.4286 26.240012,-24.33898 l 5.70309,-22.58197 z m 3.13959,103.6639 c 6.17254,0 11.17577,3.74326 11.17577,8.35302 0,4.60977 -5.00323,8.35303 -11.17577,8.35303 -6.1725,0 -11.17577,-3.74326 -11.17577,-8.35303 0,-4.60976 5.00327,-8.35302 11.17577,-8.35302 z"
       id="path2985-2"
       inkscape:connector-curvature="0" />
    <path
       style="fill:url(#linearGradient3047);fill-opacity:1;fill-rule:nonzero;stroke:#eeeeee;stroke-width:1.84342587"
       d="m 85.039235,984.87952 c -1.429706,0 -2.576774,0.62511 -2.576774,1.40266 l 0,3.07189 -0.07759,0 c 0.03822,0.3579 0.04187,0.75285 0.03879,1.12467 -0.01467,7.1747 0.0026,14.34706 -0.01551,21.52166 0,0.2711 -0.0029,0.5405 -0.0077,0.8114 -0.0062,0.3336 -0.04696,0.6706 -0.131927,0.9158 -0.04737,0.1357 -0.116238,0.2328 -0.186275,0.2493 -0.08785,0.024 -0.175619,0 -0.263887,0 -0.210959,-0.01 -0.425396,0 -0.636433,0 -0.888371,0 -1.767007,0 -2.654386,-0.022 l 0,-15.71971 c 0,-1.55638 -2.645448,-2.81129 -5.169072,-2.81129 l -21.623168,0 c -2.523599,0 -4.555909,1.25491 -4.555909,2.81129 l 0,24.11851 c 0,1.5565 2.03231,2.8054 4.555909,2.8054 l 18.409963,0 c 0.792232,1.1796 2.048553,1.9417 3.46932,1.9417 l 16.935328,0 c 2.405502,0 4.330819,-2.181 4.330819,-4.8862 l 0,-6.3122 13.147767,0 0,7.1758 c 0,2.1618 2.53839,3.901 5.69684,3.901 l 48.92767,0 c 2.38174,0 4.41482,-0.9919 5.26997,-2.4056 0.22261,1.3901 0.63032,2.3244 1.0866,2.3244 l 5.99952,0 c 0.38111,0 0.72303,-0.6588 0.95466,-1.681 0.83413,0.8174 2.06869,1.8606 3.4538,1.8606 l 21.62318,0 c 2.52366,0 4.55591,-1.7149 4.55591,-3.8428 l 0,-19.4467 c 0,-2.128 -2.03225,-3.84292 -4.55591,-3.84292 l -21.62318,0 c -2.52365,0 -4.55591,1.71492 -4.55591,3.84292 l 0,11.0129 -2.38273,0 c -0.24991,0.021 -0.49521,0.011 -0.74509,0.012 -0.0614,0 -0.12482,-0.01 -0.18628,0 -0.0259,0 -0.052,0.024 -0.0777,0 -0.004,0 -0.005,-4e-4 -0.009,-0.01 l -3.0968,0 0,-10.7751 c 0,-0.2519 -0.0427,-0.5038 -0.10863,-0.7421 l 0,-3.1763 -16.62487,0 c -0.0162,0 -0.038,0 -0.0544,0 -0.31623,0 -0.63034,0.012 -0.9469,0.012 -8.22657,0.015 -2.32884,-0.01 -10.55545,0.01 l -0.92361,0 c -0.42073,0 -0.82737,-0.025 -1.20299,-0.081 -0.2641,-0.039 -0.50869,-0.0992 -0.56661,-0.1856 -0.0486,-1.11432 -0.006,-2.2358 -0.031,-3.35026 -0.004,-0.03 0.03,-0.0552 0.0777,-0.0813 0.24844,-0.12638 0.74046,-0.19972 1.24182,-0.20862 2.63006,-0.01 1.73061,-0.0145 0.83045,-0.0174 0.27351,0 0.20228,-2e-4 0.83047,0 3.46269,0 6.92987,0.01 10.39246,0 0.0678,0 0.1334,0 0.2018,0 0.22094,0 0.44104,0 0.65973,0.01 l 54.12774,0 0,-7.30915 c 0,-2.16151 -2.54613,-3.90078 -5.7046,-3.90078 l -50.60411,0 c -1.37778,0.95424 -2.70631,1.96564 -4.28426,2.70098 -6.63106,3.53091 -15.03189,4.80047 -23.06679,4.00522 l 0,15.71971 c 0,0.252 0.0269,0.5033 0.0932,0.7419 l 0,3.1647 18.00639,0 c 0.17294,0 0.0394,0 0.27939,0 3.37607,0 6.75253,-4e-4 10.1286,-0.01 l 0.66745,0 c 0.41179,0 0.82636,0.022 1.19527,0.074 0.27515,0.039 0.53165,0.1015 0.58986,0.1913 0.0386,0.8503 0.0307,1.6999 0.031,2.5504 0.004,0.1896 -0.009,0.3784 0,0.5681 -0.004,0.08 0.0314,0.1588 0,0.2376 -0.0193,0.063 -0.13668,0.1198 -0.29497,0.1624 -0.28633,0.076 -0.67389,0.1275 -1.06328,0.1333 -0.31623,0 -0.63806,0 -0.95466,0 -8.37605,0.015 -16.75518,-0.011 -25.13128,0.01 -0.32926,0 -0.65888,0 -0.98572,-0.016 l -6.31775,0 0,-2.3882 c 0.0242,-0.2569 0.0401,-0.5191 0.0233,-0.7883 l 0,-10.0275 -0.0233,0 0,-3.95889 c 0,-0.77753 -1.0885,-1.40271 -2.44482,-1.40271 l -6.86103,0 c -1.35636,0 -2.44487,0.62518 -2.44487,1.40271 l 0,6.99039 c -0.006,0.02 -0.009,0.044 -0.0155,0.064 -0.0442,0.1356 -0.11304,0.2384 -0.1785,0.2551 -0.0821,0.024 -0.16589,0 -0.24837,0 -0.19717,-0.01 -0.38489,0 -0.58211,0 -0.81764,0 -8.716242,0.01 -10.640841,-0.017 l 0,-16.00945 -0.03881,0 0,-3.07198 c 0,-0.77756 -1.147095,-1.40266 -2.576778,-1.40266 l -7.225845,0 z m -23.2996,20.43778 c 1.321419,-0.01 2.982427,0.01 3.958273,0 0.03449,0 0.07034,0.01 0.10091,0.03 0.14758,0.1223 0.237983,0.3731 0.248363,0.6203 0.01663,2.592 0.0083,2.8446 0.0077,5.4369 0.003,1.7062 -0.0019,0.1542 0.0077,1.8605 0.003,0.2672 -0.0043,0.546 -0.08538,0.7882 -0.04615,0.1356 -0.110922,0.2851 -0.225069,0.2899 -0.990822,0.045 -3.213902,0.01 -4.206661,0.01 -0.221393,0 -0.446087,0.01 -0.667478,0.012 -0.09256,0 -0.187244,0.013 -0.279408,0 -0.07339,-0.011 -0.136575,-0.067 -0.186274,-0.145 -0.08914,-0.141 -0.133047,-0.3412 -0.139704,-0.5332 -0.0047,-0.1558 -0.0074,-0.302 -0.0077,-0.4579 -0.01888,-4.1276 1.49e-4,-2.6599 -0.01549,-6.7874 -0.0031,-0.2806 -0.0049,-0.5749 0.08537,-0.8288 0.04575,-0.1303 0.132054,-0.2498 0.232841,-0.2783 0.325257,-0.01 0.731481,-0.01 1.17198,-0.012 z m 130.414245,2.5561 c 0.0345,0 0.0703,0.019 0.1009,0.052 0.14758,0.1674 0.23789,0.5025 0.24838,0.8403 0.004,0.8861 0.006,1.2424 0.009,1.3274 0,-0.1512 1.9e-4,-0.527 0,0.7652 0.004,2.333 -0.002,-1.3009 0.009,1.0317 0.004,0.3652 -0.004,3.3493 -0.0854,3.6807 -0.0461,0.1854 -0.11868,0.3989 -0.23283,0.4058 -0.99084,0.059 -1.97985,0.01 -2.9726,0.01 -0.22139,0 -0.44609,0.01 -0.66747,0.012 -0.0926,0 -0.18732,0.018 -0.27942,0 -0.0734,-0.013 -0.13661,-0.096 -0.18627,-0.2029 -0.0892,-0.1929 -0.13309,-3.0532 -0.13975,-3.3155 -0.004,-0.2129 -0.008,-0.4301 -0.009,-0.6433 -0.0189,-5.6431 -1.2e-4,3.2202 -0.0157,-2.4229 -0.004,-0.3838 -0.005,-0.7892 0.0854,-1.1361 0.0456,-0.1779 0.13206,-0.3378 0.23288,-0.3767 1.30106,-0.032 2.60279,0 3.90395,-0.012 l 0,-0.011 z"
       id="rect3137"
       inkscape:connector-curvature="0" />
    <g
       id="g3088"
       style="fill:#641401;fill-opacity:1;stroke:#eeeeee;stroke-width:2"
       transform="matrix(0.92171293,0,0,0.92171293,8.161924,72.954892)">
      <path
         inkscape:connector-curvature="0"
         id="path3333"
         d="m 109.17401,993.48671 c -0.21447,0.5537 -0.33683,1.1462 -0.33683,1.7608 0,3.1159 2.98195,5.64079 6.66072,5.64079 2.9559,0 5.46151,-1.63509 6.33228,-3.89259 -4.4668,-0.5952 -8.7857,-1.7783 -12.65617,-3.509 z"
         style="fill:#641401;fill-opacity:1;fill-rule:nonzero;stroke:#eeeeee;stroke-width:2;stroke-opacity:1" />
      <path
         sodipodi:type="arc"
         style="fill:#641401;fill-opacity:1;fill-rule:nonzero;stroke:#eeeeee;stroke-width:129.56047058;stroke-opacity:1"
         id="path3018"
         sodipodi:cx="920"
         sodipodi:cy="5600.9336"
         sodipodi:rx="394.28571"
         sodipodi:ry="400"
         d="m 1314.2857,5600.9336 c 0,220.9139 -176.5277,400 -394.2857,400 -217.75798,0 -394.28571,-179.0861 -394.28571,-400 0,-220.9139 176.52773,-400 394.28571,-400 217.758,0 394.2857,179.0861 394.2857,400 z"
         transform="matrix(0.01689379,0,0,0.01410548,85.844957,916.24087)" />
      <path
         transform="matrix(0.01689379,0,0,0.01410548,85.569598,950.30047)"
         d="m 1314.2857,5600.9336 c 0,220.9139 -176.5277,400 -394.2857,400 -217.75798,0 -394.28571,-179.0861 -394.28571,-400 0,-220.9139 176.52773,-400 394.28571,-400 217.758,0 394.2857,179.0861 394.2857,400 z"
         sodipodi:ry="400"
         sodipodi:rx="394.28571"
         sodipodi:cy="5600.9336"
         sodipodi:cx="920"
         id="path3020"
         style="fill:#641401;fill-opacity:1;fill-rule:nonzero;stroke:#eeeeee;stroke-width:129.56047058;stroke-opacity:1"
         sodipodi:type="arc" />
      <path
         sodipodi:type="arc"
         style="fill:#641401;fill-opacity:1;fill-rule:nonzero;stroke:#eeeeee;stroke-width:129.56047058;stroke-opacity:1"
         id="path3022"
         sodipodi:cx="920"
         sodipodi:cy="5600.9336"
         sodipodi:rx="394.28571"
         sodipodi:ry="400"
         d="m 1314.2857,5600.9336 c 0,220.9139 -176.5277,400 -394.2857,400 -217.75798,0 -394.28571,-179.0861 -394.28571,-400 0,-220.9139 176.52773,-400 394.28571,-400 217.758,0 394.2857,179.0861 394.2857,400 z"
         transform="matrix(0.01689379,0,0,0.01410548,36.095783,915.75822)" />
      <path
         transform="matrix(0.01689379,0,0,0.01410548,49.790737,915.81463)"
         d="m 1314.2857,5600.9336 c 0,220.9139 -176.5277,400 -394.2857,400 -217.75798,0 -394.28571,-179.0861 -394.28571,-400 0,-220.9139 176.52773,-400 394.28571,-400 217.758,0 394.2857,179.0861 394.2857,400 z"
         sodipodi:ry="400"
         sodipodi:rx="394.28571"
         sodipodi:cy="5600.9336"
         sodipodi:cx="920"
         id="path3024"
         style="fill:#641401;fill-opacity:1;fill-rule:nonzero;stroke:#eeeeee;stroke-width:129.56047058;stroke-opacity:1"
         sodipodi:type="arc" />
    </g>
    <path
       style="fill:url(#linearGradient3910);fill-opacity:1;stroke:none;opacity:0.52916666999999995"
       d="M 225.25 17.28125 C 158.58316 18.21004 91.853859 16.77325 25.21875 18.03125 C 16.7032 20.88714 16.501946 31.31316 17.5 38.75 C 17.684863 67.693779 17.55709 96.665848 17.46875 125.625 C 83.288263 108.66207 155.88752 107.25784 238.5625 129.0625 C 238.69814 94.078872 238.7038 59.082666 237.625 24.1875 C 235.57471 19.55652 230.18698 17.03051 225.25 17.28125 z "
       transform="translate(0,796.36218)"
       id="rect3863" />
  </g>
</svg>
